<?xml version="1.0" encoding="UTF-8" standalone="no"?><!-- Generator: Gravit.io --><svg xmlns="http://www.w3.org/2000/svg" xmlns:xlink="http://www.w3.org/1999/xlink" style="isolation:isolate" viewBox="11.496 10 53.504 29.67" width="53.504pt" height="29.67pt"><g><path d="M 61.5 21.392 L 15.691 21.392 C 13.76 21.392 12.191 22.96 12.191 24.892 L 12.191 24.892 C 12.191 26.823 13.76 28.392 15.691 28.392 L 61.5 28.392 C 63.432 28.392 65 26.823 65 24.892 L 65 24.892 C 65 22.96 63.432 21.392 61.5 21.392 Z" style="stroke:none;fill:#EBEBEB;stroke-miterlimit:10;"/><path d="M 17.583 27.367 L 28.976 15.974 C 30.342 14.608 30.342 12.39 28.976 11.024 L 28.976 11.024 C 27.61 9.659 25.392 9.659 24.026 11.024 L 12.633 22.417 C 11.267 23.783 11.267 26.001 12.633 27.367 L 12.633 27.367 C 13.999 28.733 16.217 28.733 17.583 27.367 Z" style="stroke:none;fill:#EBEBEB;stroke-miterlimit:10;"/><path d="M 17.47 22.416 L 28.75 33.696 C 30.116 35.062 30.116 37.28 28.75 38.646 L 28.75 38.646 C 27.384 40.012 25.166 40.012 23.8 38.646 L 12.52 27.366 C 11.154 26 11.154 23.782 12.52 22.416 L 12.52 22.416 C 13.886 21.05 16.104 21.05 17.47 22.416 Z" style="stroke:none;fill:#EBEBEB;stroke-miterlimit:10;"/></g></svg>