<?xml version="1.0" encoding="UTF-8" standalone="no"?><!-- Generator: Gravit.io --><svg xmlns="http://www.w3.org/2000/svg" xmlns:xlink="http://www.w3.org/1999/xlink" style="isolation:isolate" viewBox="160.875 675.426 35 40" width="35pt" height="40pt"><path d=" M 160.875 711.676 C 160.875 713.746 162.555 715.426 164.625 715.426 L 192.125 715.426 C 194.195 715.426 195.875 713.746 195.875 711.676 L 195.875 690.426 L 160.875 690.426 L 160.875 711.676 Z  M 185.875 696.363 C 185.875 695.848 186.297 695.426 186.813 695.426 L 189.938 695.426 C 190.453 695.426 190.875 695.848 190.875 696.363 L 190.875 699.488 C 190.875 700.004 190.453 700.426 189.938 700.426 L 186.813 700.426 C 186.297 700.426 185.875 700.004 185.875 699.488 L 185.875 696.363 Z  M 185.875 706.363 C 185.875 705.848 186.297 705.426 186.813 705.426 L 189.938 705.426 C 190.453 705.426 190.875 705.848 190.875 706.363 L 190.875 709.488 C 190.875 710.004 190.453 710.426 189.938 710.426 L 186.813 710.426 C 186.297 710.426 185.875 710.004 185.875 709.488 L 185.875 706.363 Z  M 175.875 696.363 C 175.875 695.848 176.297 695.426 176.813 695.426 L 179.938 695.426 C 180.453 695.426 180.875 695.848 180.875 696.363 L 180.875 699.488 C 180.875 700.004 180.453 700.426 179.938 700.426 L 176.813 700.426 C 176.297 700.426 175.875 700.004 175.875 699.488 L 175.875 696.363 Z  M 175.875 706.363 C 175.875 705.848 176.297 705.426 176.813 705.426 L 179.938 705.426 C 180.453 705.426 180.875 705.848 180.875 706.363 L 180.875 709.488 C 180.875 710.004 180.453 710.426 179.938 710.426 L 176.813 710.426 C 176.297 710.426 175.875 710.004 175.875 709.488 L 175.875 706.363 Z  M 165.875 696.363 C 165.875 695.848 166.297 695.426 166.813 695.426 L 169.938 695.426 C 170.453 695.426 170.875 695.848 170.875 696.363 L 170.875 699.488 C 170.875 700.004 170.453 700.426 169.938 700.426 L 166.813 700.426 C 166.297 700.426 165.875 700.004 165.875 699.488 L 165.875 696.363 Z  M 165.875 706.363 C 165.875 705.848 166.297 705.426 166.813 705.426 L 169.938 705.426 C 170.453 705.426 170.875 705.848 170.875 706.363 L 170.875 709.488 C 170.875 710.004 170.453 710.426 169.938 710.426 L 166.813 710.426 C 166.297 710.426 165.875 710.004 165.875 709.488 L 165.875 706.363 Z  M 192.125 680.426 L 188.375 680.426 L 188.375 676.676 C 188.375 675.988 187.813 675.426 187.125 675.426 L 184.625 675.426 C 183.938 675.426 183.375 675.988 183.375 676.676 L 183.375 680.426 L 173.375 680.426 L 173.375 676.676 C 173.375 675.988 172.813 675.426 172.125 675.426 L 169.625 675.426 C 168.938 675.426 168.375 675.988 168.375 676.676 L 168.375 680.426 L 164.625 680.426 C 162.555 680.426 160.875 682.106 160.875 684.176 L 160.875 687.926 L 195.875 687.926 L 195.875 684.176 C 195.875 682.106 194.195 680.426 192.125 680.426 Z " fill="rgb(255,255,255)"/></svg>