<?xml version="1.0" encoding="UTF-8" standalone="no"?><!-- Generator: Gravit.io --><svg xmlns="http://www.w3.org/2000/svg" xmlns:xlink="http://www.w3.org/1999/xlink" style="isolation:isolate" viewBox="7 675.717 40 39.999" width="40pt" height="39.999pt"><path d=" M 46.936 705.309 L 44.85 692.81 C 44.647 691.607 43.608 690.724 42.382 690.724 L 23.257 690.724 L 23.257 685.724 L 30.757 685.724 C 31.444 685.724 32.007 685.162 32.007 684.474 L 32.007 676.967 C 32.007 676.279 31.444 675.717 30.757 675.717 L 10.758 675.717 C 10.07 675.717 9.508 676.279 9.508 676.967 L 9.508 684.466 C 9.508 685.154 10.07 685.716 10.758 685.716 L 18.257 685.716 L 18.257 690.716 L 11.625 690.716 C 10.406 690.716 9.359 691.599 9.156 692.802 L 7.07 705.302 C 7.023 705.575 7 705.848 7 706.122 L 7 713.215 C 7 714.598 8.117 715.715 9.5 715.715 L 44.499 715.715 C 45.881 715.715 46.999 714.598 46.999 713.215 L 46.999 706.13 C 47.006 705.856 46.983 705.583 46.936 705.309 L 46.936 705.309 Z  M 28.882 695.091 C 28.882 694.404 29.444 693.841 30.132 693.841 L 31.382 693.841 C 32.069 693.841 32.632 694.404 32.632 695.091 L 32.632 696.341 C 32.632 697.028 32.069 697.591 31.382 697.591 L 30.132 697.591 C 29.444 697.591 28.882 697.028 28.882 696.341 L 28.882 695.091 Z  M 26.382 700.091 L 27.632 700.091 C 28.32 700.091 28.882 700.653 28.882 701.341 L 28.882 702.591 C 28.882 703.278 28.32 703.841 27.632 703.841 L 26.382 703.841 C 25.695 703.841 25.132 703.278 25.132 702.591 L 25.132 701.341 C 25.132 700.653 25.695 700.091 26.382 700.091 Z  M 23.882 693.841 C 24.57 693.841 25.132 694.404 25.132 695.091 L 25.132 696.341 C 25.132 697.028 24.57 697.591 23.882 697.591 L 22.632 697.591 C 21.945 697.591 21.382 697.028 21.382 696.341 L 21.382 695.091 C 21.382 694.404 21.945 693.841 22.632 693.841 L 23.882 693.841 Z  M 13.258 681.967 L 13.258 679.467 L 28.257 679.467 L 28.257 681.967 L 13.258 681.967 Z  M 16.382 697.591 L 15.133 697.591 C 14.445 697.591 13.883 697.028 13.883 696.341 L 13.883 695.091 C 13.883 694.404 14.445 693.841 15.133 693.841 L 16.382 693.841 C 17.07 693.841 17.632 694.404 17.632 695.091 L 17.632 696.341 C 17.632 697.028 17.07 697.591 16.382 697.591 Z  M 17.632 702.591 L 17.632 701.341 C 17.632 700.653 18.195 700.091 18.882 700.091 L 20.132 700.091 C 20.82 700.091 21.382 700.653 21.382 701.341 L 21.382 702.591 C 21.382 703.278 20.82 703.841 20.132 703.841 L 18.882 703.841 C 18.195 703.841 17.632 703.278 17.632 702.591 Z  M 34.507 711.34 C 34.507 711.684 34.226 711.965 33.882 711.965 L 20.132 711.965 C 19.789 711.965 19.507 711.684 19.507 711.34 L 19.507 710.09 C 19.507 709.747 19.789 709.466 20.132 709.466 L 33.882 709.466 C 34.226 709.466 34.507 709.747 34.507 710.09 L 34.507 711.34 Z  M 36.382 702.591 C 36.382 703.278 35.819 703.841 35.132 703.841 L 33.882 703.841 C 33.194 703.841 32.632 703.278 32.632 702.591 L 32.632 701.341 C 32.632 700.653 33.194 700.091 33.882 700.091 L 35.132 700.091 C 35.819 700.091 36.382 700.653 36.382 701.341 L 36.382 702.591 Z  M 40.132 696.341 C 40.132 697.028 39.569 697.591 38.882 697.591 L 37.632 697.591 C 36.944 697.591 36.382 697.028 36.382 696.341 L 36.382 695.091 C 36.382 694.404 36.944 693.841 37.632 693.841 L 38.882 693.841 C 39.569 693.841 40.132 694.404 40.132 695.091 L 40.132 696.341 Z " fill="rgb(255,255,255)"/></svg>