<?xml version="1.0" encoding="UTF-8" standalone="no"?><!-- Generator: Gravit.io --><svg xmlns="http://www.w3.org/2000/svg" xmlns:xlink="http://www.w3.org/1999/xlink" style="isolation:isolate" viewBox="32 682.2 24 21.6" width="24pt" height="21.6pt"><path d=" M 56 691.8 L 56 682.2 L 47.6 682.2 L 47.6 685.8 L 40.4 685.8 L 40.4 682.2 L 32 682.2 L 32 691.8 L 40.4 691.8 L 40.4 688.2 L 42.8 688.2 L 42.8 700.2 L 47.6 700.2 L 47.6 703.8 L 56 703.8 L 56 694.2 L 47.6 694.2 L 47.6 697.8 L 45.2 697.8 L 45.2 688.2 L 47.6 688.2 L 47.6 691.8 L 56 691.8 Z  M 38 689.4 L 34.4 689.4 L 34.4 684.6 L 38 684.6 L 38 689.4 Z  M 50 696.6 L 53.6 696.6 L 53.6 701.4 L 50 701.4 L 50 696.6 Z  M 50 684.6 L 53.6 684.6 L 53.6 689.4 L 50 689.4 L 50 684.6 Z " fill="rgb(255,255,255)"/></svg>