<?xml version="1.0" encoding="UTF-8" standalone="no"?><!-- Generator: Gravit.io --><svg xmlns="http://www.w3.org/2000/svg" xmlns:xlink="http://www.w3.org/1999/xlink" style="isolation:isolate" viewBox="307.941 82.305 23.5 23.797" width="23.5pt" height="23.797pt"><g><path d="M 319.691 82.305 L 319.691 82.305 C 326.176 82.305 331.441 87.57 331.441 94.055 L 331.441 94.352 C 331.441 100.837 326.176 106.102 319.691 106.102 L 319.691 106.102 C 313.206 106.102 307.941 100.837 307.941 94.352 L 307.941 94.055 C 307.941 87.57 313.206 82.305 319.691 82.305 Z" style="stroke:none;fill:#FFFFFF;stroke-miterlimit:10;"/><path d=" M 323.319 90.575 C 322.358 89.61 321.052 89.068 319.691 89.069 L 319.691 94.203 L 316.063 97.831 C 318.065 99.833 321.317 99.833 323.327 97.831 C 324.29 96.868 324.83 95.563 324.828 94.201 C 324.827 92.84 324.283 91.535 323.319 90.575 Z  M 319.691 85.646 C 314.968 85.646 311.134 89.48 311.134 94.203 C 311.134 98.926 314.968 102.76 319.691 102.76 C 324.414 102.76 328.247 98.926 328.247 94.203 C 328.247 89.48 324.414 85.646 319.691 85.646 Z  M 319.691 101.048 C 315.909 101.048 312.845 97.985 312.845 94.203 C 312.845 90.421 315.909 87.358 319.691 87.358 C 323.473 87.358 326.536 90.421 326.536 94.203 C 326.536 97.985 323.473 101.048 319.691 101.048 Z " fill="#ffa319"/></g></svg>