<?xml version="1.0" encoding="UTF-8" standalone="no"?><!-- Generator: Gravit.io --><svg xmlns="http://www.w3.org/2000/svg" xmlns:xlink="http://www.w3.org/1999/xlink" style="isolation:isolate" viewBox="5 274 22.407 22" width="22.407pt" height="22pt"><path d=" M 16 274 L 16.407 274 C 22.478 274 27.407 278.929 27.407 285 L 27.407 285 C 27.407 291.071 22.478 296 16.407 296 L 16 296 C 9.929 296 5 291.071 5 285 L 5 285 C 5 278.929 9.929 274 16 274 Z  M 11.704 283.473 L 11.704 280.982 C 11.704 280.715 11.919 280.5 12.186 280.5 L 14.677 280.5 C 14.81 280.5 14.918 280.608 14.918 280.741 L 14.918 281.545 C 14.918 281.677 14.81 281.786 14.677 281.786 L 12.989 281.786 L 12.989 283.473 C 12.989 283.606 12.881 283.714 12.748 283.714 L 11.945 283.714 C 11.812 283.714 11.704 283.606 11.704 283.473 L 11.704 283.473 Z  M 17.489 280.741 L 17.489 281.545 C 17.489 281.677 17.598 281.786 17.73 281.786 L 19.418 281.786 L 19.418 283.473 C 19.418 283.606 19.526 283.714 19.659 283.714 L 20.463 283.714 C 20.595 283.714 20.704 283.606 20.704 283.473 L 20.704 280.982 C 20.704 280.715 20.489 280.5 20.222 280.5 L 17.73 280.5 C 17.598 280.5 17.489 280.608 17.489 280.741 L 17.489 280.741 Z  M 20.463 286.286 L 19.659 286.286 C 19.526 286.286 19.418 286.394 19.418 286.527 L 19.418 288.214 L 17.73 288.214 C 17.598 288.214 17.489 288.323 17.489 288.455 L 17.489 289.259 C 17.489 289.392 17.598 289.5 17.73 289.5 L 20.222 289.5 C 20.489 289.5 20.704 289.285 20.704 289.018 L 20.704 286.527 C 20.704 286.394 20.595 286.286 20.463 286.286 L 20.463 286.286 Z  M 14.918 289.259 L 14.918 288.455 C 14.918 288.323 14.81 288.214 14.677 288.214 L 12.989 288.214 L 12.989 286.527 C 12.989 286.394 12.881 286.286 12.748 286.286 L 11.945 286.286 C 11.812 286.286 11.704 286.394 11.704 286.527 L 11.704 289.018 C 11.704 289.285 11.919 289.5 12.186 289.5 L 14.677 289.5 C 14.81 289.5 14.918 289.392 14.918 289.259 L 14.918 289.259 Z " fill-rule="evenodd" fill="rgb(255,255,255)"/></svg>