<?xml version="1.0" encoding="UTF-8" standalone="no"?><!-- Generator: Gravit.io --><svg xmlns="http://www.w3.org/2000/svg" xmlns:xlink="http://www.w3.org/1999/xlink" style="isolation:isolate" viewBox="209.796 431.5 22.407 22" width="22.407pt" height="22pt"><g><path d="M 220.796 431.5 L 221.204 431.5 C 227.275 431.5 232.204 436.429 232.204 442.5 L 232.204 442.5 C 232.204 448.571 227.275 453.5 221.204 453.5 L 220.796 453.5 C 214.725 453.5 209.796 448.571 209.796 442.5 L 209.796 442.5 C 209.796 436.429 214.725 431.5 220.796 431.5 Z" style="stroke:none;fill:#FFFFFF;stroke-miterlimit:10;"/><path d=" M 216.5 440.973 L 216.5 438.482 C 216.5 438.215 216.715 438 216.982 438 L 219.473 438 C 219.606 438 219.714 438.108 219.714 438.241 L 219.714 439.045 C 219.714 439.177 219.606 439.286 219.473 439.286 L 217.786 439.286 L 217.786 440.973 C 217.786 441.106 217.677 441.214 217.545 441.214 L 216.741 441.214 C 216.608 441.214 216.5 441.106 216.5 440.973 Z  M 222.286 438.241 L 222.286 439.045 C 222.286 439.177 222.394 439.286 222.527 439.286 L 224.214 439.286 L 224.214 440.973 C 224.214 441.106 224.323 441.214 224.455 441.214 L 225.259 441.214 C 225.392 441.214 225.5 441.106 225.5 440.973 L 225.5 438.482 C 225.5 438.215 225.285 438 225.018 438 L 222.527 438 C 222.394 438 222.286 438.108 222.286 438.241 Z  M 225.259 443.786 L 224.455 443.786 C 224.323 443.786 224.214 443.894 224.214 444.027 L 224.214 445.714 L 222.527 445.714 C 222.394 445.714 222.286 445.823 222.286 445.955 L 222.286 446.759 C 222.286 446.892 222.394 447 222.527 447 L 225.018 447 C 225.285 447 225.5 446.785 225.5 446.518 L 225.5 444.027 C 225.5 443.894 225.392 443.786 225.259 443.786 Z  M 219.714 446.759 L 219.714 445.955 C 219.714 445.823 219.606 445.714 219.473 445.714 L 217.786 445.714 L 217.786 444.027 C 217.786 443.894 217.677 443.786 217.545 443.786 L 216.741 443.786 C 216.608 443.786 216.5 443.894 216.5 444.027 L 216.5 446.518 C 216.5 446.785 216.715 447 216.982 447 L 219.473 447 C 219.606 447 219.714 446.892 219.714 446.759 Z " fill="rgb(59,121,173)"/></g></svg>