<?xml version="1.0" encoding="UTF-8" standalone="no"?><!-- Generator: Gravit.io --><svg xmlns="http://www.w3.org/2000/svg" xmlns:xlink="http://www.w3.org/1999/xlink" style="isolation:isolate" viewBox="210.5 680.58 40 32" width="40pt" height="32pt"><path d=" M 237.591 690.952 L 243.916 683.96 C 245.163 682.713 244.28 680.58 242.516 680.58 L 212.484 680.58 C 210.72 680.58 209.837 682.713 211.084 683.96 L 222.5 696.58 L 222.5 706.325 C 222.5 707.112 222.871 707.853 223.5 708.325 L 228.499 712.075 C 229.803 713.053 231.529 712.511 232.201 711.227 C 229.925 709.042 228.5 705.977 228.5 702.58 C 228.5 696.968 232.378 692.257 237.591 690.952 L 237.591 690.952 Z  M 240.5 692.58 C 234.977 692.58 230.5 697.057 230.5 702.58 C 230.5 708.103 234.977 712.58 240.5 712.58 C 246.023 712.58 250.5 708.103 250.5 702.58 C 250.5 697.057 246.023 692.58 240.5 692.58 Z  M 241.5 707.573 L 241.5 708.58 C 241.5 708.857 241.276 709.08 241 709.08 L 240 709.08 C 239.724 709.08 239.5 708.857 239.5 708.58 L 239.5 707.562 C 238.794 707.526 238.108 707.28 237.539 706.853 C 237.296 706.67 237.283 706.305 237.504 706.094 L 238.238 705.393 C 238.411 705.228 238.669 705.221 238.871 705.348 C 239.113 705.499 239.387 705.58 239.672 705.58 L 241.429 705.58 C 241.836 705.58 242.167 705.21 242.167 704.756 C 242.167 704.384 241.941 704.057 241.619 703.96 L 238.806 703.117 C 237.644 702.768 236.832 701.653 236.832 700.405 C 236.832 698.872 238.023 697.627 239.499 697.588 L 239.499 696.58 C 239.499 696.304 239.723 696.08 239.999 696.08 L 240.999 696.08 C 241.276 696.08 241.499 696.304 241.499 696.58 L 241.499 697.598 C 242.205 697.635 242.891 697.88 243.46 698.308 C 243.704 698.491 243.716 698.856 243.496 699.067 L 242.761 699.767 C 242.588 699.932 242.331 699.94 242.128 699.813 C 241.886 699.661 241.612 699.58 241.327 699.58 L 239.57 699.58 C 239.164 699.58 238.832 699.95 238.832 700.405 C 238.832 700.777 239.058 701.104 239.381 701.2 L 242.193 702.044 C 243.355 702.393 244.167 703.508 244.167 704.756 C 244.167 706.289 242.977 707.533 241.5 707.573 L 241.5 707.573 Z " fill="rgb(255,255,255)"/></svg>