<?xml version="1.0" encoding="UTF-8" standalone="no"?><!-- Generator: Gravit.io --><svg xmlns="http://www.w3.org/2000/svg" xmlns:xlink="http://www.w3.org/1999/xlink" style="isolation:isolate" viewBox="279 684.287 20 22.857" width="20pt" height="22.857pt"><path d=" M 296.857 694.287 L 295.786 694.287 L 295.786 691.073 C 295.786 687.332 292.741 684.287 289 684.287 C 285.259 684.287 282.214 687.332 282.214 691.073 L 282.214 694.287 L 281.143 694.287 C 279.96 694.287 279 695.247 279 696.43 L 279 705.002 C 279 706.185 279.96 707.145 281.143 707.145 L 296.857 707.145 C 298.04 707.145 299 706.185 299 705.002 L 299 696.43 C 299 695.247 298.04 694.287 296.857 694.287 Z  M 292.214 694.287 L 285.786 694.287 L 285.786 691.073 C 285.786 689.301 287.228 687.859 289 687.859 C 290.772 687.859 292.214 689.301 292.214 691.073 L 292.214 694.287 Z " fill="rgb(255,255,255)"/></svg>