<?xml version="1.0" encoding="UTF-8" standalone="no"?><!-- Generator: Gravit.io --><svg xmlns="http://www.w3.org/2000/svg" xmlns:xlink="http://www.w3.org/1999/xlink" style="isolation:isolate" viewBox="7.132 7 49.751 41" width="49.751pt" height="41pt"><g><path d="M 53.844 7 L 10.171 7 C 8.493 7 7.132 8.362 7.132 10.039 L 7.132 10.961 C 7.132 12.638 8.493 14 10.171 14 L 53.844 14 C 55.521 14 56.882 12.638 56.882 10.961 L 56.882 10.039 C 56.882 8.362 55.521 7 53.844 7 Z" style="stroke:none;fill:#EBEBEB;stroke-miterlimit:10;"/><path d="M 53.844 41 L 10.171 41 C 8.493 41 7.132 42.362 7.132 44.039 L 7.132 44.961 C 7.132 46.638 8.493 48 10.171 48 L 53.844 48 C 55.521 48 56.882 46.638 56.882 44.961 L 56.882 44.039 C 56.882 42.362 55.521 41 53.844 41 Z" style="stroke:none;fill:#EBEBEB;stroke-miterlimit:10;"/><path d="M 53.844 24 L 24.304 24 C 22.627 24 21.265 25.362 21.265 27.039 L 21.265 27.961 C 21.265 29.638 22.627 31 24.304 31 L 53.844 31 C 55.521 31 56.882 29.638 56.882 27.961 L 56.882 27.039 C 56.882 25.362 55.521 24 53.844 24 Z" style="stroke:none;fill:#EBEBEB;stroke-miterlimit:10;"/></g></svg>