<?xml version="1.0" encoding="UTF-8" standalone="no"?><!-- Generator: Gravit.io --><svg xmlns="http://www.w3.org/2000/svg" xmlns:xlink="http://www.w3.org/1999/xlink" style="isolation:isolate" viewBox="106.25 677.69 40 35.557" width="40pt" height="35.557pt"><path d=" M 145.139 693.246 L 143.09 693.246 C 142.479 691.857 141.59 690.628 140.493 689.6 L 141.805 684.357 L 139.583 684.357 C 137.541 684.357 135.736 685.294 134.513 686.739 C 133.986 686.662 133.465 686.579 132.916 686.579 L 124.027 686.579 C 118.652 686.579 114.172 690.398 113.138 695.468 L 110.137 695.468 C 109.11 695.468 108.297 694.531 108.505 693.468 C 108.658 692.676 109.401 692.135 110.207 692.135 L 110.276 692.135 C 110.506 692.135 110.693 691.947 110.693 691.718 L 110.693 690.329 C 110.693 690.1 110.506 689.912 110.276 689.912 C 108.297 689.912 106.533 691.329 106.283 693.287 C 105.978 695.663 107.825 697.69 110.137 697.69 L 112.915 697.69 C 112.915 701.316 114.679 704.503 117.36 706.531 L 117.36 712.135 C 117.36 712.747 117.86 713.247 118.471 713.247 L 122.916 713.247 C 123.527 713.247 124.027 712.747 124.027 712.135 L 124.027 708.802 L 132.916 708.802 L 132.916 712.135 C 132.916 712.747 133.416 713.247 134.027 713.247 L 138.472 713.247 C 139.083 713.247 139.583 712.747 139.583 712.135 L 139.583 706.531 C 140.403 705.913 141.132 705.184 141.757 704.357 L 145.139 704.357 C 145.75 704.357 146.25 703.857 146.25 703.246 L 146.25 694.357 C 146.25 693.746 145.75 693.246 145.139 693.246 Z  M 136.25 697.69 C 135.638 697.69 135.138 697.19 135.138 696.579 C 135.138 695.968 135.638 695.468 136.25 695.468 C 136.861 695.468 137.361 695.968 137.361 696.579 C 137.361 697.19 136.861 697.69 136.25 697.69 Z  M 124.027 684.357 L 132.916 684.357 C 133.291 684.357 133.659 684.384 134.02 684.412 C 134.02 684.391 134.027 684.377 134.027 684.357 C 134.027 680.676 131.041 677.69 127.36 677.69 C 123.68 677.69 120.693 680.676 120.693 684.357 C 120.693 684.502 120.728 684.641 120.735 684.787 C 121.791 684.516 122.888 684.357 124.027 684.357 Z " fill="rgb(255,255,255)"/></svg>