<?xml version="1.0" encoding="UTF-8" standalone="no"?><!-- Generator: Gravit.io --><svg xmlns="http://www.w3.org/2000/svg" xmlns:xlink="http://www.w3.org/1999/xlink" style="isolation:isolate" viewBox="61.625 676.002 30 40.004" width="30pt" height="40.004pt"><path d=" M 89.625 676.254 L 86.625 679.754 L 82.375 676.254 C 81.931 675.918 81.319 675.918 80.875 676.254 L 76.625 679.754 L 72.375 676.254 C 71.931 675.918 71.319 675.918 70.875 676.254 L 66.625 679.754 L 63.625 676.254 C 62.797 675.637 61.625 676.223 61.625 677.254 L 61.625 714.754 C 61.625 715.785 62.797 716.371 63.625 715.754 L 66.625 712.254 L 70.875 715.754 C 71.319 716.09 71.931 716.09 72.375 715.754 L 76.625 712.254 L 80.875 715.754 C 81.319 716.09 81.931 716.09 82.375 715.754 L 86.625 712.254 L 89.625 715.754 C 90.445 716.371 91.625 715.785 91.625 714.754 L 91.625 677.254 C 91.625 676.223 90.453 675.637 89.625 676.254 Z  M 86.625 704.129 C 86.625 704.473 86.344 704.754 86 704.754 L 67.25 704.754 C 66.906 704.754 66.625 704.473 66.625 704.129 L 66.625 702.879 C 66.625 702.535 66.906 702.254 67.25 702.254 L 86 702.254 C 86.344 702.254 86.625 702.535 86.625 702.879 L 86.625 704.129 Z  M 86.625 696.629 C 86.625 696.973 86.344 697.254 86 697.254 L 67.25 697.254 C 66.906 697.254 66.625 696.973 66.625 696.629 L 66.625 695.379 C 66.625 695.035 66.906 694.754 67.25 694.754 L 86 694.754 C 86.344 694.754 86.625 695.035 86.625 695.379 L 86.625 696.629 Z  M 86.625 689.129 C 86.625 689.473 86.344 689.754 86 689.754 L 67.25 689.754 C 66.906 689.754 66.625 689.473 66.625 689.129 L 66.625 687.879 C 66.625 687.535 66.906 687.254 67.25 687.254 L 86 687.254 C 86.344 687.254 86.625 687.535 86.625 687.879 L 86.625 689.129 Z " fill="rgb(255,255,255)"/></svg>