<?xml version="1.0" encoding="UTF-8" standalone="no"?><!-- Generator: Gravit.io --><svg xmlns="http://www.w3.org/2000/svg" xmlns:xlink="http://www.w3.org/1999/xlink" style="isolation:isolate" viewBox="235 602.867 66 66" width="66pt" height="66pt"><g><path d="M 268 620.867 L 268 620.867 C 276.279 620.867 283 627.588 283 635.867 L 283 635.867 C 283 644.146 276.279 650.867 268 650.867 L 268 650.867 C 259.721 650.867 253 644.146 253 635.867 L 253 635.867 C 253 627.588 259.721 620.867 268 620.867 Z" style="stroke:none;fill:#FFFFFF;stroke-miterlimit:10;"/><path d=" M 276.062 638.175 L 272.212 638.175 L 265.499 644.901 C 265.425 644.976 265.337 645.03 265.258 645.099 L 276.062 645.099 C 276.699 645.099 277.214 644.582 277.214 643.945 L 277.214 639.329 C 277.214 638.692 276.699 638.175 276.062 638.175 Z  M 274.458 632.661 L 271.2 629.397 C 270.75 628.946 270.021 628.946 269.571 629.397 L 266.848 632.125 L 266.848 641.637 C 266.848 641.744 266.824 641.844 266.817 641.949 L 274.458 634.293 C 274.907 633.842 274.907 633.111 274.458 632.661 Z  M 265.696 627.789 C 265.696 627.151 265.181 626.635 264.544 626.635 L 259.938 626.635 C 259.301 626.635 258.786 627.151 258.786 627.789 L 258.786 641.637 C 258.786 643.549 260.333 645.099 262.241 645.099 C 264.149 645.099 265.696 643.549 265.696 641.637 L 265.696 627.789 Z  M 262.241 642.503 C 261.764 642.503 261.377 642.115 261.377 641.637 C 261.377 641.159 261.764 640.772 262.241 640.772 C 262.718 640.772 263.105 641.159 263.105 641.637 C 263.105 642.115 262.718 642.503 262.241 642.503 Z  M 263.393 635.867 L 261.089 635.867 L 261.089 633.559 L 263.393 633.559 L 263.393 635.867 L 263.393 635.867 Z  M 263.393 631.251 L 261.089 631.251 L 261.089 628.943 L 263.393 628.943 L 263.393 631.251 L 263.393 631.251 Z " fill="rgb(70,201,58)"/></g></svg>