<?xml version="1.0" encoding="UTF-8" standalone="no"?><!-- Generator: Gravit.io --><svg xmlns="http://www.w3.org/2000/svg" xmlns:xlink="http://www.w3.org/1999/xlink" style="isolation:isolate" viewBox="190.803 82.305 23.5 23.797" width="23.5pt" height="23.797pt"><g><path d="M 202.553 82.305 L 202.553 82.305 C 209.038 82.305 214.303 87.57 214.303 94.055 L 214.303 94.352 C 214.303 100.837 209.038 106.102 202.553 106.102 L 202.553 106.102 C 196.068 106.102 190.803 100.837 190.803 94.352 L 190.803 94.055 C 190.803 87.57 196.068 82.305 202.553 82.305 Z" style="stroke:none;fill:#FFFFFF;stroke-miterlimit:10;"/><path d=" M 196.404 94.11 L 196.404 89.207 C 196.404 88.57 196.92 88.054 197.557 88.054 L 202.46 88.054 C 202.766 88.054 203.059 88.176 203.275 88.392 L 208.364 93.481 C 208.815 93.931 208.815 94.661 208.364 95.112 L 203.462 100.014 C 203.011 100.465 202.281 100.465 201.831 100.014 L 196.742 94.925 C 196.526 94.709 196.404 94.416 196.404 94.11 Z  M 199.094 89.591 C 198.458 89.591 197.941 90.108 197.941 90.744 C 197.941 91.381 198.458 91.897 199.094 91.897 C 199.731 91.897 200.247 91.381 200.247 90.744 C 200.247 90.108 199.731 89.591 199.094 89.591 Z " fill="rgb(217,0,255)"/></g></svg>