<?xml version="1.0" encoding="UTF-8" standalone="no"?><!-- Generator: Gravit.io --><svg xmlns="http://www.w3.org/2000/svg" xmlns:xlink="http://www.w3.org/1999/xlink" style="isolation:isolate" viewBox="79.391 82.305 23.5 23.797" width="23.5pt" height="23.797pt"><g><path d="M 91.141 82.305 L 91.141 82.305 C 97.626 82.305 102.891 87.57 102.891 94.055 L 102.891 94.352 C 102.891 100.837 97.626 106.102 91.141 106.102 L 91.141 106.102 C 84.656 106.102 79.391 100.837 79.391 94.352 L 79.391 94.055 C 79.391 87.57 84.656 82.305 91.141 82.305 Z" style="stroke:none;fill:#FFFFFF;stroke-miterlimit:10;"/><path d=" M 98.962 93.177 L 97.988 93.177 C 97.543 90.175 95.169 87.801 92.166 87.355 L 92.166 86.382 C 92.166 86.17 91.994 85.998 91.782 85.998 L 90.5 85.998 C 90.287 85.998 90.115 86.17 90.115 86.382 L 90.115 87.355 C 87.113 87.801 84.739 90.175 84.293 93.177 L 83.32 93.177 C 83.108 93.177 82.935 93.35 82.935 93.562 L 82.935 94.844 C 82.935 95.057 83.108 95.229 83.32 95.229 L 84.293 95.229 C 84.739 98.231 87.113 100.605 90.115 101.051 L 90.115 102.024 C 90.115 102.236 90.287 102.409 90.5 102.409 L 91.782 102.409 C 91.994 102.409 92.166 102.236 92.166 102.024 L 92.166 101.051 C 95.169 100.605 97.543 98.231 97.988 95.229 L 98.962 95.229 C 99.174 95.229 99.346 95.057 99.346 94.844 L 99.346 93.562 C 99.346 93.35 99.174 93.177 98.962 93.177 Z  M 92.166 98.967 L 92.166 97.665 C 92.166 97.452 91.994 97.28 91.782 97.28 L 90.5 97.28 C 90.287 97.28 90.115 97.452 90.115 97.665 L 90.115 98.967 C 88.25 98.57 86.775 97.096 86.377 95.229 L 87.679 95.229 C 87.892 95.229 88.064 95.057 88.064 94.844 L 88.064 93.562 C 88.064 93.35 87.892 93.177 87.679 93.177 L 86.377 93.177 C 86.774 91.313 88.248 89.837 90.115 89.439 L 90.115 90.741 C 90.115 90.954 90.287 91.126 90.5 91.126 L 91.782 91.126 C 91.994 91.126 92.166 90.954 92.166 90.741 L 92.166 89.439 C 94.031 89.837 95.507 91.311 95.905 93.177 L 94.603 93.177 C 94.39 93.177 94.218 93.35 94.218 93.562 L 94.218 94.844 C 94.218 95.057 94.39 95.229 94.603 95.229 L 95.905 95.229 C 95.507 97.093 94.033 98.569 92.166 98.967 Z  M 92.166 94.203 C 92.166 94.77 91.707 95.229 91.141 95.229 C 90.574 95.229 90.115 94.77 90.115 94.203 C 90.115 93.637 90.574 93.177 91.141 93.177 C 91.707 93.177 92.166 93.637 92.166 94.203 Z " fill="rgb(30,185,133)"/></g></svg>