<?xml version="1.0" encoding="UTF-8" standalone="no"?><!-- Generator: Gravit.io --><svg xmlns="http://www.w3.org/2000/svg" xmlns:xlink="http://www.w3.org/1999/xlink" style="isolation:isolate" viewBox="150.566 127.653 109.868 87.894" width="109.868pt" height="87.894pt"><path d=" M 189.02 171.6 C 201.156 171.6 210.993 161.762 210.993 149.626 C 210.993 137.491 201.156 127.653 189.02 127.653 C 176.884 127.653 167.046 137.491 167.046 149.626 C 167.046 161.762 176.884 171.6 189.02 171.6 Z  M 205.5 182.587 C 205.512 180.752 205.991 178.95 206.891 177.351 C 206.067 177.265 205.26 177.093 204.401 177.093 L 201.534 177.093 C 193.593 180.756 184.446 180.756 176.505 177.093 L 173.638 177.093 C 160.897 177.096 150.569 187.424 150.566 200.166 L 150.566 207.307 C 150.566 211.858 154.255 215.547 158.806 215.547 L 207.028 215.547 C 206.041 213.884 205.513 211.988 205.5 210.054 L 205.5 182.587 Z  M 254.94 177.093 L 249.447 177.093 L 249.447 163.36 C 249.447 155.775 243.298 149.626 235.714 149.626 C 228.129 149.626 221.98 155.775 221.98 163.36 L 221.98 177.093 L 216.487 177.093 C 213.453 177.093 210.993 179.553 210.993 182.587 L 210.993 210.054 C 210.993 213.088 213.453 215.547 216.487 215.547 L 254.94 215.547 C 257.974 215.547 260.434 213.088 260.434 210.054 L 260.434 182.587 C 260.434 179.553 257.974 177.093 254.94 177.093 Z  M 235.714 201.814 C 232.68 201.814 230.22 199.354 230.22 196.32 C 230.22 193.286 232.68 190.827 235.714 190.827 C 238.747 190.827 241.207 193.286 241.207 196.32 C 241.207 199.354 238.747 201.814 235.714 201.814 Z  M 241.207 177.093 L 230.22 177.093 L 230.22 163.36 C 230.22 160.326 232.68 157.867 235.714 157.867 C 238.747 157.867 241.207 160.326 241.207 163.36 L 241.207 177.093 Z " fill="rgb(255,255,255)"/></svg>