<?xml version="1.0" encoding="UTF-8" standalone="no"?><!-- Generator: Gravit.io --><svg xmlns="http://www.w3.org/2000/svg" xmlns:xlink="http://www.w3.org/1999/xlink" style="isolation:isolate" viewBox="64.357 21 1113.643 689" width="1113.643pt" height="689pt"><linearGradient id="_lgradient_9" x1="0.5688110339273132" y1="-0.2307222834060242" x2="0.3578419857489629" y2="1.3022991107806705" gradientTransform="matrix(1113.643,0,0,689,64.357,21)" gradientUnits="userSpaceOnUse"><stop offset="1.7391304347826086%" stop-opacity="1" style="stop-color:rgb(24,69,138)"/><stop offset="97.3913043478261%" stop-opacity="1" style="stop-color:rgb(0,98,255)"/></linearGradient><path d=" M 64.357 34.204 C 94.113 39.845 111.213 51 140.687 51 C 190.356 51 205.638 31.667 255.307 31 C 301.145 30.385 331.72 51 369.927 51 C 414.372 49.923 421.506 31 484.547 31 C 547.589 31 536.127 51 599.168 51 C 627.823 51 671.854 31.181 713.788 31 C 755.722 30.819 786.963 51 828.408 51 C 854.607 51 895.27 31 943.028 31 C 986.966 31 1026.954 51 1057.649 51 Q 1137.866 51 1172.269 21 L 1178 710 L 64.357 705" fill="url(#_lgradient_9)"/></svg>